<svg width="25" height="19" viewBox="0 0 25 19" fill="none" xmlns="http://www.w3.org/2000/svg">
<path d="M23.7245 10.6683C24.4289 10.6683 25 10.0973 25 9.39281C25 8.68837 24.4289 8.1173 23.7245 8.1173V10.6683ZM0.373587 8.49089C-0.124528 8.98901 -0.124528 9.79662 0.373587 10.2947L8.49089 18.412C8.989 18.9101 9.79661 18.9101 10.2947 18.412C10.7928 17.9139 10.7928 17.1063 10.2947 16.6082L3.07935 9.39281L10.2947 2.17744C10.7928 1.67932 10.7928 0.871711 10.2947 0.373593C9.79661 -0.124525 8.989 -0.124525 8.49089 0.373593L0.373587 8.49089ZM23.7245 8.1173L1.27551 8.1173V10.6683L23.7245 10.6683V8.1173Z" fill="#D5BA94"/>
</svg>
